<svg width="241" height="51" viewBox="0 0 241 51" fill="none" xmlns="http://www.w3.org/2000/svg">
<path d="M81.6353 12.2822H75.9529L72 36.9881H75.5647L76.2353 32.5058H81L81.6706 36.9881H85.5882L81.6353 12.2822ZM78.6 16.6587L80.4706 29.1528H76.7294L78.6 16.6587Z" fill="#000"/>
<path d="M86.2676 15.8116H90.3264V36.9881H94.2088V15.8116H98.2676V12.2822H86.2676V15.8116Z" fill="#000"/>
<path d="M98.8477 15.8116H102.906V36.9881H106.788V15.8116H110.847V12.2822H98.8477V15.8116Z" fill="#000"/>
<path d="M124.628 36.9881C124.239 36.0705 124.204 35.1881 124.204 33.9881V30.1764C124.204 27.5999 123.569 25.7293 121.628 24.9175C123.357 24.1058 124.169 22.447 124.169 19.9058V17.9646C124.169 14.1528 122.439 12.2822 118.416 12.2822H112.557V36.9881H116.439V26.9293H117.781C119.545 26.9293 120.322 27.7764 120.322 30.0705V33.9528C120.322 35.9646 120.463 36.3528 120.675 36.9881H124.628ZM118.31 15.8116C119.686 15.8116 120.286 16.5881 120.286 18.3528V20.7881C120.286 22.7646 119.404 23.3999 117.957 23.3999H116.439V15.8116H118.31Z" fill="#000"/>
<path d="M135.369 12.2822H129.687L125.734 36.9881H129.299L129.969 32.5058H134.734L135.405 36.9881H139.322L135.369 12.2822ZM132.334 16.6587L134.205 29.1528H130.463L132.334 16.6587Z" fill="#000"/>
<path d="M148.683 27.7765V31.3059C148.683 33.0706 147.906 33.7059 146.671 33.7059C145.436 33.7059 144.659 33.0706 144.659 31.3059V17.9647C144.659 16.2 145.436 15.5294 146.671 15.5294C147.906 15.5294 148.683 16.2 148.683 17.9647V20.6118H152.354V18.2118C152.354 14.2588 150.377 12 146.565 12C142.754 12 140.777 14.2588 140.777 18.2118V31.0588C140.777 35.0118 142.754 37.2706 146.565 37.2706C150.377 37.2706 152.354 35.0118 152.354 31.0588V27.7765H148.683Z" fill="#000"/>
<path d="M153.58 15.8116H157.639V36.9881H161.521V15.8116H165.58V12.2822H153.58V15.8116Z" fill="#000"/>
<path d="M178.594 26.7529H180.359V31.3059C180.359 33.0706 179.583 33.7059 178.347 33.7059C177.112 33.7059 176.335 33.0706 176.335 31.3059V17.9647C176.335 16.2 177.112 15.5294 178.347 15.5294C179.583 15.5294 180.359 16.2 180.359 17.9647V20.6118H184.03V18.2118C184.03 14.2588 182.053 12 178.241 12C174.43 12 172.453 14.2588 172.453 18.2118V31.0588C172.453 35.0118 174.43 37.2706 178.241 37.2706C182.053 37.2706 184.03 35.0118 184.03 31.0588V23.2235H178.594V26.7529Z" fill="#000"/>
<path d="M198.594 36.9881C198.205 36.0705 198.17 35.1881 198.17 33.9881V30.1764C198.17 27.5999 197.535 25.7293 195.594 24.9175C197.323 24.1058 198.135 22.447 198.135 19.9058V17.9646C198.135 14.1528 196.405 12.2822 192.382 12.2822H186.523V36.9881H190.405V26.9293H191.747C193.511 26.9293 194.288 27.7764 194.288 30.0705V33.9528C194.288 35.9646 194.429 36.3528 194.641 36.9881H198.594ZM192.276 15.8116C193.652 15.8116 194.252 16.5881 194.252 18.3528V20.7881C194.252 22.7646 193.37 23.3999 191.923 23.3999H190.405V15.8116H192.276Z" fill="#000"/>
<path d="M204.288 17.9647C204.288 16.2 205.065 15.5294 206.3 15.5294C207.535 15.5294 208.312 16.2 208.312 17.9647V31.3059C208.312 33.0706 207.535 33.7412 206.3 33.7412C205.065 33.7412 204.288 33.0706 204.288 31.3059V17.9647ZM200.406 31.0588C200.406 35.0118 202.488 37.2706 206.3 37.2706C210.112 37.2706 212.194 35.0118 212.194 31.0588V18.2118C212.194 14.2588 210.112 12 206.3 12C202.488 12 200.406 14.2588 200.406 18.2118V31.0588Z" fill="#000"/>
<path d="M214.541 12.2822V31.094C214.541 35.047 216.517 37.3058 220.329 37.3058C224.141 37.3058 226.117 35.047 226.117 31.094V12.2822H222.446V31.3411C222.446 33.1058 221.67 33.7411 220.435 33.7411C219.199 33.7411 218.423 33.1058 218.423 31.3411V12.2822H214.541Z" fill="#000"/>
<path d="M234.497 12.2822H228.779V36.9881H232.662V27.7058H234.497C238.38 27.7058 240.285 25.5528 240.285 21.5999V18.3881C240.285 14.4352 238.38 12.2822 234.497 12.2822ZM234.497 15.8116C235.732 15.8116 236.403 16.3763 236.403 18.1411V21.8469C236.403 23.6117 235.732 24.1764 234.497 24.1764H232.662V15.8116H234.497Z" fill="#000"/>
<path d="M8.82422 13L38.236 19.1446L27.1602 49.7647L8.82422 13Z" fill="#56B9EA"/>
<path d="M0 8.08076L64.7059 0L34.521 38.2353L42.4693 16.9069L0 8.08076Z" fill="#000"/>
</svg>
